<svg xmlns="http://www.w3.org/2000/svg" width="125" height="18" viewBox="0 0 125 18"><title>PETE.RAWLINGS.</title><g fill="#77B9D6"><path d="M.82 1.189h4.141c1.12 0 1.981.088 2.583.264s1.055.43 1.357.762.508.734.615 1.206.161 1.203.161 2.192V6.99c0 1.009-.104 1.745-.312 2.207s-.591.817-1.147 1.064-1.284.371-2.183.371H4.932V17H.82V1.189zm4.112 2.706v4.023c.117.007.218.01.303.01.377 0 .64-.093.786-.278s.22-.571.22-1.157v-1.3c0-.54-.084-.892-.254-1.055s-.522-.243-1.055-.243zM10.859 1.189h6.855v3.164H14.97v2.998h2.568v3.008H14.97v3.477h3.018V17h-7.129V1.189zM27.188 1.189v3.164h-2.441V17h-4.111V4.354h-2.432V1.189h8.984zM28.125 1.189h6.855v3.164h-2.744v2.998h2.568v3.008h-2.568v3.477h3.018V17h-7.129V1.189zM38.945 13.777V17h-2.979v-3.223h2.979zM40.127 1.189h2.91c1.94 0 3.253.075 3.94.225s1.247.532 1.68 1.147.649 1.597.649 2.944c0 1.23-.153 2.058-.459 2.48s-.908.677-1.807.762c.814.202 1.361.472 1.641.811s.454.649.522.933.103 1.062.103 2.339V17h-3.818v-5.254c0-.847-.067-1.37-.2-1.572s-.483-.303-1.05-.303V17h-4.111V1.189zm4.111 2.706V7.41c.462 0 .786-.063.972-.19s.278-.539.278-1.235v-.87c0-.501-.089-.83-.269-.986s-.506-.234-.981-.234zM58.005 1.189L60.356 17h-4.202l-.221-2.842h-1.471L54.216 17h-4.25l2.097-15.811h5.942zm-2.179 10.166a189.824 189.824 0 0 1-.626-6.64c-.419 3.027-.682 5.241-.789 6.641h1.415zM76.172 1.189L74.342 17h-5.134c-.47-2.429-.884-5.192-1.244-8.291-.164 1.328-.546 4.092-1.147 8.291h-5.104l-1.84-15.811h3.994l.435 5.517.42 5.333c.151-2.76.53-6.376 1.137-10.85h4.27c.057.462.206 2.2.448 5.215l.454 6.016c.233-3.827.616-7.57 1.147-11.23h3.994zM81.094 1.189v12.646h2.5V17h-6.611V1.189h4.111zM88.701 1.189V17H84.59V1.189h4.111zM99.531 1.189V17h-3.604l-2.139-7.188V17H90.35V1.189h3.438l2.305 7.119V1.189h3.438zM110.615 7.01h-4.111V5.574c0-.905-.039-1.472-.117-1.699s-.264-.342-.557-.342c-.254 0-.426.098-.518.293s-.137.696-.137 1.504v7.588c0 .71.045 1.177.137 1.401s.273.337.547.337c.299 0 .503-.127.61-.381s.161-.749.161-1.484v-1.875h-.83V8.514h4.814V17h-2.584l-.38-1.133c-.28.488-.634.854-1.061 1.099s-.93.366-1.51.366c-.69 0-1.337-.168-1.94-.503-.602-.335-1.06-.75-1.373-1.245-.312-.495-.508-1.014-.586-1.558s-.117-1.359-.117-2.446V6.883c0-1.511.082-2.607.244-3.291s.63-1.311 1.401-1.88 1.769-.854 2.993-.854c1.205 0 2.203.247 2.998.742s1.312 1.082 1.553 1.763.361 1.668.361 2.964v.683zM120.918 5.975H117.1V4.803c0-.547-.049-.896-.146-1.045s-.26-.225-.488-.225c-.248 0-.435.101-.562.303s-.19.509-.19.919c0 .527.071.925.214 1.192.137.267.524.589 1.162.967 1.83 1.086 2.983 1.978 3.458 2.674s.713 1.819.713 3.369c0 1.126-.132 1.956-.396 2.49s-.772.981-1.528 1.343-1.635.542-2.637.542c-1.1 0-2.039-.208-2.817-.625s-1.288-.947-1.528-1.592-.361-1.56-.361-2.744v-1.035h3.818v1.924c0 .593.054.974.161 1.143s.298.254.571.254.477-.107.61-.322.2-.534.2-.957c0-.931-.127-1.54-.381-1.826-.26-.286-.902-.765-1.924-1.436-1.021-.677-1.699-1.169-2.031-1.475s-.607-.729-.825-1.27-.327-1.23-.327-2.07c0-1.211.154-2.097.464-2.656s.81-.998 1.499-1.313 1.523-.474 2.5-.474c1.068 0 1.978.173 2.729.518s1.25.779 1.494 1.304.366 1.414.366 2.671v.624zM125.059 13.777V17h-2.979v-3.223h2.979z"/></g></svg>