<svg xmlns="http://www.w3.org/2000/svg" xmlns:xlink="http://www.w3.org/1999/xlink" width="125" height="18" viewBox="0 0 125 18"><image overflow="visible" width="125" height="18" xlink:href="7909858D1F705E3F.jpg"/><defs><path id="a" d="M9.142 9.054c-.208.462-.589.816-1.147 1.062-.557.248-1.284.372-2.183.372H4.709v6.367H.599V1.044h4.14c1.119 0 1.981.088 2.583.264.601.176 1.054.43 1.356.762.303.332.509.735.615 1.207.108.472.161 1.202.161 2.192v1.377c.001 1.009-.102 1.745-.312 2.208zM6.017 5.049c0-.54-.083-.893-.253-1.055-.169-.163-.522-.244-1.055-.244v4.022c.118.008.218.012.303.012.377 0 .64-.094.786-.279.147-.185.219-.571.219-1.158V5.049zm11.749 8.641v3.165h-7.129V1.044h6.855v3.165h-2.745v2.998h2.569v3.007h-2.569v3.476h3.019zm6.757-9.481v12.646h-4.111V4.209H17.98V1.044h8.985v3.165h-2.442zm10.508 9.481v3.165h-7.128V1.044h6.855v3.165h-2.745v2.998h2.569v3.007h-2.569v3.476h3.018zm.713 3.165v-3.223h2.979v3.223h-2.979zm13.237-6.508c.068.283.104 1.063.104 2.339v4.17h-3.819v-5.254c0-.846-.066-1.371-.2-1.572-.134-.201-.483-.303-1.05-.303v7.129h-4.111V1.044h2.909c1.941 0 3.254.076 3.941.226.687.15 1.247.532 1.679 1.147.433.615.651 1.596.651 2.944 0 1.23-.153 2.057-.459 2.48-.306.424-.908.677-1.807.762.813.201 1.361.472 1.642.81.277.339.451.65.52.934zM45.266 4.97c0-.501-.09-.83-.269-.985-.179-.156-.506-.234-.981-.234v3.515c.462 0 .786-.062.971-.19s.279-.538.279-1.235V4.97zm10.666 11.885l-.221-2.843H54.24l-.247 2.843h-4.25L51.84 1.044h5.942l2.35 15.811h-4.2zM54.977 4.57c-.419 3.027-.682 5.241-.788 6.642h1.414a192.231 192.231 0 0 1-.626-6.642zm19.141 12.285h-5.132c-.471-2.429-.885-5.192-1.245-8.29-.165 1.327-.547 4.091-1.147 8.29h-5.103L59.65 1.044h3.995l.435 5.517.419 5.333c.153-2.759.532-6.377 1.138-10.85h4.27c.057.462.207 2.2.448 5.216l.454 6.014c.233-3.827.617-7.57 1.147-11.23h3.994l-1.832 15.811zm2.642 0V1.044h4.11V13.69h2.5v3.165h-6.61zm7.607 0V1.044h4.111v15.811h-4.111zm11.339 0l-2.14-7.187v7.187h-3.438V1.044h3.438l2.305 7.12v-7.12h3.438v15.811h-3.603zm9.872-6.084V8.369h4.814v8.487h-2.583l-.381-1.134c-.28.49-.635.855-1.06 1.099-.427.245-.931.367-1.511.367a3.923 3.923 0 0 1-1.939-.502c-.603-.337-1.06-.751-1.374-1.245a3.981 3.981 0 0 1-.587-1.558c-.077-.545-.115-1.36-.115-2.447V6.739c0-1.511.08-2.608.243-3.291.162-.685.63-1.311 1.401-1.88.771-.57 1.769-.855 2.992-.855 1.205 0 2.204.249 3 .743.794.495 1.311 1.083 1.553 1.762.24.682.36 1.669.36 2.964v.685h-4.112V5.429c0-.904-.038-1.471-.116-1.698-.078-.229-.264-.343-.557-.343-.253 0-.427.098-.518.293-.092.195-.137.698-.137 1.504v7.589c0 .709.045 1.176.137 1.401.091.224.274.336.546.336.3 0 .505-.127.611-.381.107-.253.161-.749.161-1.484v-1.875h-.828zm11.298-6.114c0-.546-.048-.894-.146-1.043-.097-.15-.259-.226-.488-.226a.625.625 0 0 0-.561.303c-.127.203-.189.509-.189.92 0 .527.07.924.212 1.192.138.268.524.589 1.163.966 1.83 1.086 2.981 1.978 3.459 2.674.475.697.712 1.82.712 3.369 0 1.126-.132 1.956-.395 2.49-.265.533-.773.981-1.529 1.342-.755.363-1.635.543-2.637.543-1.1 0-2.039-.209-2.817-.625-.777-.417-1.288-.947-1.528-1.591-.241-.646-.36-1.56-.36-2.745V11.19h3.817v1.925c0 .593.053.974.161 1.143.107.169.298.254.571.254.274 0 .477-.107.61-.321.134-.216.2-.535.2-.959 0-.929-.127-1.538-.38-1.825-.262-.286-.902-.765-1.925-1.435-1.021-.679-1.7-1.17-2.031-1.476-.332-.306-.607-.73-.825-1.27-.219-.54-.327-1.23-.327-2.07 0-1.211.155-2.097.464-2.656.31-.561.809-.999 1.498-1.314.691-.315 1.524-.474 2.5-.474 1.068 0 1.979.172 2.73.517.752.347 1.25.781 1.495 1.305.243.524.365 1.415.365 2.671v.625h-3.819V4.657zm4.98 12.198v-3.223h2.979v3.223h-2.979z"/></defs><clipPath id="b"><use xlink:href="#a" overflow="visible"/></clipPath><image overflow="visible" clip-path="url(#b)" width="125" height="18" xlink:href="7909858D1F705E3D.jpg"/></svg>